<?xml version="1.0" encoding="iso-8859-1"?>
<!-- Uploaded to: SVG Repo, www.svgrepo.com, Generator: SVG Repo Mixer Tools -->
<svg fill="#000000" version="1.1" id="Layer_1" xmlns="http://www.w3.org/2000/svg" xmlns:xlink="http://www.w3.org/1999/xlink" 
	 viewBox="0 0 491.52 491.52" xml:space="preserve">
<g>
	<g>
		<rect x="194.56" y="430.07" width="20.48" height="20.48"/>
	</g>
</g>
<g>
	<g>
		<rect x="235.52" y="430.07" width="20.48" height="20.48"/>
	</g>
</g>
<g>
	<g>
		<rect x="276.48" y="430.07" width="20.48" height="20.48"/>
	</g>
</g>
<g>
	<g>
		<path d="M471.04,389.11v-256h-96.589c6.328-35.646,3.852-62.332,3.784-62.99c-0.43-4.13-3.31-7.59-7.29-8.76
			C285.675,36.25,253.49,3.5,253.205,3.2c-1.925-2.04-4.615-3.18-7.415-3.19c-2.915,0.33-5.505,1.14-7.445,3.16
			c-0.315,0.33-32.5,33.08-117.77,58.19c-3.98,1.17-6.86,4.63-7.29,8.76c-0.068,0.658-2.544,27.344,3.784,62.99H20.48v256H0v55.44
			l46.96,46.96h397.6l46.96-46.96v-55.44H471.04z M133.205,78.94c64.255-19.83,98.65-43.58,112.555-54.98
			c13.9,11.39,48.275,35.13,112.49,54.96c0.995,29.29-2.185,146.97-112.49,196.61C134.2,225.39,131.905,108.54,133.205,78.94z
			 M40.96,153.59h80.581c13.027,50.214,44.674,110.428,120.214,142.54c1.28,0.55,2.64,0.82,4.005,0.82s2.725-0.27,4.005-0.82
			c75.54-32.112,107.187-92.326,120.214-142.54h80.581v235.52H40.96V153.59z M471.04,436.07l-34.96,34.96H55.44l-34.96-34.96v-26.48
			h450.56V436.07z"/>
	</g>
</g>
</svg>