<svg width="130" height="130" viewBox="0 0 130 130" fill="none" xmlns="http://www.w3.org/2000/svg">
<g filter="url(#filter0_d_9_37)">
<path d="M52.2207 37.864L46.0607 55H41.9447L35.7847 37.864H39.7887L44.0167 50.212L48.2447 37.864H52.2207Z" fill="#333333"/>
<path d="M92.1545 90.714C91.0345 91.5913 89.3919 92.03 87.2265 92.03C86.1812 92.03 85.2012 91.9367 84.2865 91.75C83.3719 91.582 82.5879 91.3393 81.9345 91.022V87.83C82.6999 88.166 83.5119 88.446 84.3705 88.67C85.2292 88.8753 86.0505 88.978 86.8345 88.978C88.9065 88.978 89.9425 88.3153 89.9425 86.99C89.9425 86.374 89.6625 85.898 89.1025 85.562C88.5425 85.2073 87.5532 84.8153 86.1345 84.386C84.9959 84.0313 84.0999 83.6393 83.4465 83.21C82.8119 82.7807 82.3452 82.2673 82.0465 81.67C81.7665 81.054 81.6265 80.2887 81.6265 79.374C81.6265 77.75 82.1679 76.5087 83.2505 75.65C84.3332 74.7913 85.9572 74.362 88.1225 74.362C88.9065 74.362 89.7652 74.4367 90.6985 74.586C91.6319 74.7353 92.3785 74.9033 92.9385 75.09V78.31C91.5945 77.7127 90.2039 77.414 88.7665 77.414C87.6839 77.414 86.8719 77.5727 86.3305 77.89C85.7892 78.1887 85.5185 78.6647 85.5185 79.318C85.5185 79.8593 85.7519 80.2793 86.2185 80.578C86.7039 80.8767 87.6092 81.2033 88.9345 81.558C90.2225 81.894 91.2212 82.3047 91.9305 82.79C92.6585 83.2753 93.1532 83.854 93.4145 84.526C93.6945 85.1793 93.8345 85.9913 93.8345 86.962C93.8345 88.586 93.2745 89.8367 92.1545 90.714Z" fill="#333333"/>
<path d="M28 19.5H69.6379C75.6198 19.5 79.4857 25.8254 76.7573 31.1488L57.0702 69.5611C55.359 72.8999 51.9228 75 48.1709 75H28C22.4771 75 18 70.5229 18 65V29.5C18 23.9772 22.4772 19.5 28 19.5Z" stroke="#333333" stroke-width="4"/>
<path d="M102 110L60.3621 110C54.3802 110 50.5143 103.675 53.2427 98.3511L72.9298 59.9389C74.6411 56.6001 78.0772 54.5 81.8291 54.5L102 54.5C107.523 54.5 112 58.9771 112 64.5L112 100C112 105.523 107.523 110 102 110Z" stroke="#333333" stroke-width="4"/>
</g>
<defs>
<filter id="filter0_d_9_37" x="8" y="13.5" width="114" height="110.5" filterUnits="userSpaceOnUse" color-interpolation-filters="sRGB">
<feFlood flood-opacity="0" result="BackgroundImageFix"/>
<feColorMatrix in="SourceAlpha" type="matrix" values="0 0 0 0 0 0 0 0 0 0 0 0 0 0 0 0 0 0 127 0" result="hardAlpha"/>
<feOffset dy="4"/>
<feGaussianBlur stdDeviation="4"/>
<feComposite in2="hardAlpha" operator="out"/>
<feColorMatrix type="matrix" values="0 0 0 0 0 0 0 0 0 0 0 0 0 0 0 0 0 0 0.2 0"/>
<feBlend mode="normal" in2="BackgroundImageFix" result="effect1_dropShadow_9_37"/>
<feBlend mode="normal" in="SourceGraphic" in2="effect1_dropShadow_9_37" result="shape"/>
</filter>
</defs>
</svg>
