<svg width="24" height="24" viewBox="0 0 24 24" fill="none" xmlns="http://www.w3.org/2000/svg">
<path d="M5.53999 19.5157C4.92999 19.5157 4.35999 19.3057 3.94999 18.9157C3.42999 18.4257 3.17999 17.6857 3.26999 16.8857L3.63999 13.6457C3.70999 13.0357 4.07999 12.2257 4.50999 11.7857L12.72 3.09565C14.77 0.925654 16.91 0.865655 19.08 2.91565C21.25 4.96565 21.31 7.10565 19.26 9.27565L11.05 17.9657C10.63 18.4157 9.84999 18.8357 9.23999 18.9357L6.01999 19.4857C5.84999 19.4957 5.69999 19.5157 5.53999 19.5157ZM15.93 2.90565C15.16 2.90565 14.49 3.38565 13.81 4.10565L5.59999 12.8057C5.39999 13.0157 5.16999 13.5157 5.12999 13.8057L4.75999 17.0457C4.71999 17.3757 4.79999 17.6457 4.97999 17.8157C5.15999 17.9857 5.42999 18.0457 5.75999 17.9957L8.97999 17.4457C9.26999 17.3957 9.74999 17.1357 9.94999 16.9257L18.16 8.23565C19.4 6.91565 19.85 5.69565 18.04 3.99565C17.24 3.22565 16.55 2.90565 15.93 2.90565Z" fill="#A72F3B"/>
<path d="M17.3404 10.9528C17.3204 10.9528 17.2904 10.9528 17.2704 10.9528C14.1504 10.6428 11.6404 8.27278 11.1604 5.17278C11.1004 4.76278 11.3804 4.38278 11.7904 4.31278C12.2004 4.25278 12.5804 4.53278 12.6504 4.94278C13.0304 7.36278 14.9904 9.22278 17.4304 9.46278C17.8404 9.50278 18.1404 9.87278 18.1004 10.2828C18.0504 10.6628 17.7204 10.9528 17.3404 10.9528Z" fill="#A72F3B"/>
<path d="M21 22.75H3C2.59 22.75 2.25 22.41 2.25 22C2.25 21.59 2.59 21.25 3 21.25H21C21.41 21.25 21.75 21.59 21.75 22C21.75 22.41 21.41 22.75 21 22.75Z" fill="#A72F3B"/>
</svg>
